<svg width="113" height="42" viewBox="0 0 113 42" fill="none" xmlns="http://www.w3.org/2000/svg">
<g clip-path="url(#clip0_26586_33125)">
<path fill-rule="evenodd" clip-rule="evenodd" d="M90.5319 13.9844C92.9309 13.9844 94.6256 12.6529 95.407 10.8701C95.7481 10.1548 95.9242 9.34042 95.9462 8.52607C95.9792 7.72272 95.8252 6.91937 95.484 6.19305C94.7357 4.37727 92.9749 2.96865 90.4658 2.96865C87.1864 2.96865 85.0515 5.56578 85.0515 8.50406V8.53707C85.0845 10.8701 86.7242 13.9844 90.5319 13.9844ZM98.4333 0.096405C98.7084 0.096405 98.9285 0.316501 98.9285 0.59162V0.624635V16.2734C98.9285 16.5486 98.7084 16.7687 98.4333 16.7687H96.4304C96.1553 16.7687 95.9242 16.5486 95.9242 16.2734V13.5773C94.8347 15.6792 92.5788 16.7797 90.1027 16.7797C85.0515 16.7797 82.0582 12.862 82.0582 8.48205C82.0582 3.70597 85.5467 0.184443 90.1027 0.184443C93.217 0.184443 95.1979 1.91219 95.9242 3.40884V0.59162C95.9242 0.316501 96.1553 0.096405 96.4304 0.096405H98.4333ZM29.4773 0.184332C30.9189 0.184332 32.5256 0.591509 33.6811 1.76902C35.0567 3.17763 35.4089 4.67428 35.4419 7.67859V16.2953C35.4419 16.5594 35.2218 16.7795 34.9577 16.7905H32.9328C32.6577 16.7905 32.4376 16.5705 32.4376 16.2953V16.0642V7.79964C32.4376 6.50108 32.2615 5.20251 31.5682 4.31112C31.018 3.50778 30.1816 3.01256 28.773 3.01256C27.4524 3.01256 26.3189 3.5518 25.7467 4.50921C25.1084 5.48864 25.0204 6.35801 25.0204 7.67859V16.2623V16.2733C25.0204 16.5374 24.8113 16.7465 24.5582 16.7685H22.4783C22.2031 16.7685 21.9831 16.5484 21.9831 16.2733V16.2293V7.66758C22.0051 6.36902 21.862 5.42261 21.3448 4.55323C20.7615 3.63983 19.8481 3.03457 18.3735 3.00156C16.9649 2.96854 15.9194 3.66184 15.4022 4.53122C14.8299 5.36758 14.5658 6.46806 14.5658 7.73361V16.2733C14.5548 16.5484 14.3347 16.7685 14.0596 16.7685H12.0677C11.7926 16.7685 11.5725 16.5484 11.5725 16.2733V0.591509C11.5725 0.316389 11.7926 0.0962937 12.0787 0.107299H13.9055C14.1807 0.107299 14.4008 0.327394 14.4008 0.602514V2.8695C15.061 1.53792 16.8768 0.184332 19.1548 0.184332C20.5964 0.184332 22.0931 0.613518 23.1936 1.85706C23.5137 2.17715 23.8474 2.76247 24.061 3.13721L24.0611 3.13739C24.1192 3.23926 24.1684 3.32556 24.206 3.38672C24.4591 2.92452 24.7783 2.37428 25.3285 1.82404C26.3299 0.822609 27.7716 0.184332 29.4773 0.184332ZM50.6505 10.8701C49.8692 12.6529 48.1745 13.9844 45.7754 13.9844C41.9678 13.9844 40.3281 10.8701 40.295 8.53707V8.50406C40.295 5.56578 42.43 2.96865 45.7094 2.96865C48.2185 2.96865 49.9793 4.37727 50.7276 6.19305C51.0797 6.91937 51.2118 7.72272 51.1898 8.52607C51.1678 9.34042 51.0027 10.1548 50.6505 10.8701ZM54.1721 0.59162C54.1721 0.316501 53.952 0.096405 53.6769 0.096405H51.674C51.3989 0.096405 51.1788 0.316501 51.1788 0.59162V3.40884C50.4525 1.91219 48.4716 0.184443 45.3572 0.184443C40.8013 0.184443 37.3127 3.70597 37.3127 8.48205C37.3127 12.862 40.306 16.7797 45.3572 16.7797C47.8333 16.7797 50.0893 15.6792 51.1788 13.5773V16.2734C51.1788 16.5486 51.4099 16.7687 51.685 16.7687H53.6879C53.963 16.7687 54.1831 16.5486 54.1831 16.2734V0.624635V0.59162H54.1721ZM67.2237 16.7687C66.9486 16.7687 66.7285 16.5486 66.7285 16.2734L66.7505 7.6677C66.7725 6.36913 66.6295 5.42272 66.1123 4.55334C65.529 3.63995 64.6156 3.03468 63.141 3.00167C61.7324 2.96865 60.6869 3.66196 60.1697 4.53133C59.5974 5.3677 59.3333 6.46817 59.3333 7.73373V16.2734C59.3223 16.5486 59.1022 16.7687 58.8271 16.7687H56.8242C56.5491 16.7687 56.329 16.5486 56.329 16.2734V0.59162C56.329 0.316501 56.5491 0.096405 56.8242 0.096405H58.651C58.9262 0.096405 59.1462 0.316501 59.1683 0.602625V2.86961C59.8285 1.53803 61.6443 0.184443 63.9223 0.184443C65.3639 0.184443 66.8606 0.61363 67.9611 1.85717C68.2812 2.17727 68.6149 2.76262 68.8285 3.13735C68.8866 3.23929 68.9358 3.32565 68.9735 3.38684C69.2266 2.92463 69.5457 2.3744 70.096 1.82416C71.0974 0.822721 72.539 0.184443 74.2448 0.184443C75.6974 0.184443 77.3041 0.59162 78.4596 1.76913C79.8462 3.17774 80.1874 4.6854 80.1874 7.6787V16.2734C80.1874 16.5376 79.9673 16.7576 79.7032 16.7687H77.6783C77.4031 16.7687 77.1831 16.5486 77.1831 16.2734V7.78875C77.1831 6.49018 77.007 5.19162 76.3137 4.30023C75.7634 3.48588 74.9271 3.00167 73.5185 3.00167C72.1979 3.00167 71.0644 3.5409 70.4922 4.49832C69.8539 5.47774 69.7658 6.34712 69.7658 7.6677V16.2624V16.2734C69.7658 16.5265 69.5568 16.7466 69.3036 16.7687H67.2237ZM106.841 6.84234C105.168 6.38014 104.046 5.80789 103.991 4.56435C103.958 3.5299 104.772 2.55047 106.236 2.55047C107.578 2.52846 108.316 3.23277 108.481 4.2232C108.514 4.4653 108.723 4.65239 108.976 4.65239H108.987H110.924H110.935C111.21 4.65239 111.43 4.43229 111.43 4.15717V4.10215C111.43 4.09759 111.428 4.08737 111.426 4.07539C111.423 4.05845 111.419 4.03801 111.419 4.02511C110.902 1.04282 108.294 0.096405 106.269 0.096405C103.418 0.096405 100.997 1.87918 100.997 4.85047C101.03 7.2165 102.758 8.25095 104.948 8.91124C107.743 9.83564 108.921 10.3529 108.954 11.9045C108.954 13.2361 107.831 14.2376 106.39 14.2376C105.355 14.2376 103.969 13.6983 103.672 12.1246C103.628 11.8825 103.429 11.7065 103.176 11.7065H101.196C100.92 11.7065 100.7 11.9265 100.7 12.2017C100.7 12.2237 100.7 12.2457 100.711 12.2677C100.711 12.2677 100.722 12.3007 100.722 12.3117C101.173 15.4261 104.046 16.6806 106.368 16.6806C109.482 16.6806 112.013 14.6007 111.958 11.5524C111.86 8.22324 109.282 7.51409 106.9 6.85847L106.841 6.84234ZM29.0702 33.0998C31.9644 32.8467 34.0003 30.5026 34.0003 27.6194V27.5864C34.0003 25.1543 32.3606 22.4141 29.0702 22.139H24.8993V33.0998H29.0702ZM29.0592 19.3108H29.0922C34.4845 19.3108 37.0266 23.8117 37.0376 27.6964C37.0376 32.1423 33.8352 35.917 29.1362 35.917H29.1252H24.8993V41.3754V41.4084C24.8993 41.6835 24.6792 41.9036 24.4041 41.9036H22.5553C22.2802 41.9036 22.0601 41.6835 22.0601 41.4084V41.3754V19.861V19.806C22.0601 19.5309 22.2802 19.3108 22.5553 19.3108H22.5663H29.0592ZM107.336 21.3245C107.71 21.3245 108.073 21.3135 108.073 20.8953C108.073 20.5541 107.787 20.4771 107.49 20.4771H106.94V21.3245H107.336ZM106.94 22.667H106.632V20.213H107.578C108.129 20.213 108.382 20.4551 108.382 20.8953C108.382 21.3245 108.096 21.5226 107.765 21.5776L108.503 22.667H108.151L107.457 21.5776H106.951L106.94 22.667ZM105.608 21.4455C105.608 22.458 106.379 23.2723 107.402 23.2723C108.426 23.2723 109.196 22.469 109.196 21.4455C109.196 20.4331 108.426 19.6187 107.402 19.6187C106.379 19.6187 105.608 20.4221 105.608 21.4455ZM109.537 21.4455C109.537 22.634 108.613 23.5694 107.413 23.5694C106.214 23.5694 105.289 22.634 105.289 21.4455C105.289 20.246 106.214 19.3216 107.413 19.3216C108.602 19.3106 109.537 20.246 109.537 21.4455ZM4.10029 28.3674C4.10029 30.9866 6.2022 33.1105 8.77732 33.1105C11.7486 33.1105 12.9701 31.1406 14.2137 28.5435L8.54622 23.1071C6.57637 23.9985 4.10029 25.5062 4.10029 28.3674ZM19.9032 19.8277V23.7234C19.9032 23.7785 19.8919 23.8336 19.8815 23.8847L19.8814 23.8848C19.8773 23.9051 19.8733 23.9247 19.8701 23.9435L17.8893 28.1253L19.7491 29.9741C19.8481 30.0732 19.9142 30.2052 19.9142 30.3483V32.9454C19.9142 33.2205 19.6941 33.4406 19.419 33.4406C19.2759 33.4406 19.1548 33.3856 19.0668 33.2976H19.0558L16.2826 30.5354C15.4132 32.2191 14.5108 33.4076 13.4544 34.255C12.1118 35.3335 10.5271 35.8617 8.60125 35.8617C4.43043 35.8617 1.04096 32.5272 1.04096 28.4335C1.04096 25.4622 2.84574 23.0631 6.54335 21.1153L6.38928 20.9722C4.72756 19.4095 3.45101 18.0229 3.45101 15.5799C3.45101 12.5205 5.76201 10.0334 8.86536 9.72531H8.89838C9.17349 9.72531 9.39359 9.94541 9.39359 10.2205V11.9373C9.39359 12.1794 9.20651 12.3885 8.9644 12.4215H8.9534C7.42373 12.6856 6.33426 13.9622 6.33426 15.5028C6.33426 17.0741 7.21065 17.8989 8.31973 18.9426L8.34814 18.9693C8.39213 19.0078 8.43337 19.0463 8.47461 19.0848L8.47468 19.0849C8.51595 19.1234 8.55722 19.1619 8.60125 19.2004L8.63426 19.2224L10.5931 21.0712L10.6701 21.1483L15.7764 26.0344L18.7477 19.6186L18.7587 19.6076C18.8357 19.4315 19.0008 19.3215 19.2099 19.3215H19.2209H19.4079C19.6831 19.3215 19.9032 19.5526 19.9032 19.8277ZM99.5778 26.0567C97.9051 25.5945 96.7826 25.0222 96.7276 23.7787C96.6946 22.7443 97.5089 21.7648 98.9726 21.7648C100.315 21.7428 101.052 22.4471 101.218 23.4376C101.251 23.6797 101.46 23.8667 101.713 23.8667H101.724H103.661H103.672C103.947 23.8667 104.167 23.6466 104.167 23.3715V23.3165C104.167 23.3119 104.165 23.3017 104.163 23.2897C104.16 23.2728 104.156 23.2524 104.156 23.2395C103.65 20.2462 101.041 19.3108 99.0166 19.3108C96.1663 19.3108 93.7453 21.0935 93.7453 24.0648C93.7783 26.4309 95.5061 27.4653 97.696 28.1256C100.491 29.05 101.669 29.5672 101.702 31.1189C101.702 32.4505 100.579 33.4519 99.1376 33.4519C98.1032 33.4519 96.7166 32.9127 96.4194 31.339C96.3754 31.0969 96.1773 30.9208 95.9242 30.9208H93.9434C93.6682 30.9208 93.4482 31.1409 93.4482 31.416C93.4482 31.438 93.4482 31.46 93.4592 31.4821C93.4592 31.4821 93.4702 31.5151 93.4702 31.5261C93.9214 34.6404 96.7936 35.895 99.1156 35.895C102.23 35.895 104.761 33.8151 104.706 30.7667C104.597 27.4603 102.038 26.7445 99.6617 26.0802L99.5778 26.0567ZM83.2687 33.2098C85.6678 33.2098 87.3625 31.8782 88.1438 30.0954C88.485 29.3691 88.6611 28.5658 88.6831 27.7514C88.7161 26.9481 88.562 26.1447 88.2209 25.4184C87.4725 23.6026 85.7118 22.194 83.2027 22.194C79.9233 22.194 77.7883 24.7911 77.7883 27.7294V27.7624C77.8213 30.0954 79.461 33.2098 83.2687 33.2098ZM91.1701 19.3217C91.4453 19.3217 91.6654 19.5418 91.6654 19.817V19.839V35.4988C91.6654 35.7739 91.4453 35.994 91.1701 35.994H89.1673C88.8922 35.994 88.6611 35.7739 88.6611 35.4988V32.8026C87.5716 34.9045 85.3156 36.005 82.8395 36.005C77.7883 36.005 74.795 32.0873 74.795 27.7074C74.795 22.9313 78.2835 19.4098 82.8395 19.4098C85.9539 19.4098 87.9347 21.1375 88.6611 22.6342V19.817C88.6611 19.5418 88.8922 19.3217 89.1673 19.3217H91.1701ZM52.2682 30.0954C51.4869 31.8782 49.7922 33.2098 47.3931 33.2098C43.5855 33.2098 41.9457 30.0954 41.9127 27.7624V27.7294C41.9127 24.7911 44.0477 22.194 47.3271 22.194C49.8362 22.194 51.5969 23.6026 52.3453 25.4184C52.6864 26.1447 52.8405 26.9481 52.8075 27.7514C52.7855 28.5658 52.6094 29.3691 52.2682 30.0954ZM55.7788 19.817C55.7788 19.5418 55.5587 19.3217 55.2836 19.3217H53.2807C53.0056 19.3217 52.7745 19.5418 52.7745 19.817V22.6342C52.0481 21.1375 50.0673 19.4098 46.9529 19.4098C42.3969 19.4098 38.9084 22.9313 38.9084 27.7074C38.9084 32.0873 41.9127 36.005 46.9529 36.005C49.429 36.005 51.685 34.9045 52.7745 32.8026V35.4988C52.7745 35.7739 53.0056 35.994 53.2807 35.994H55.2836C55.5587 35.994 55.7788 35.7739 55.7788 35.4988V19.839V19.817ZM64.9458 33.0998C67.84 32.8467 69.8759 30.5026 69.8759 27.6194V27.5864C69.8759 25.1543 68.2362 22.4141 64.9458 22.139H60.7749V33.0998H64.9458ZM64.9458 19.3108H64.9788C70.3601 19.3108 72.9022 23.8117 72.9242 27.6964C72.9242 32.1423 69.7218 35.917 65.0228 35.917H65.0118H60.786V41.3754V41.4084C60.786 41.6835 60.5659 41.9036 60.2907 41.9036H58.4419C58.1668 41.9036 57.9467 41.6835 57.9467 41.4084V41.3754V19.861V19.806C57.9467 19.5309 58.1668 19.3108 58.4419 19.3108H58.4529H64.9458Z" fill="#323232"></path>
</g>
<defs>
<clipPath id="clip0_26586_33125">
<rect width="113" height="42" fill="white"></rect>
</clipPath>
</defs>
</svg>