<svg xmlns="http://www.w3.org/2000/svg" width="26" height="8.125" viewBox="0 0 26 8.125" fill="none">
  <path d="M 23.39 6.482 L 24.668 1.624 L 26 1.624 L 24.287 8.125 L 22.955 8.125 L 22.962 8.112 L 23.359 6.603 L 22.141 6.603 L 20.833 1.624 L 22.259 1.624 L 23.39 6.482 Z M 6.163 1.526 C 7.236 1.527 7.894 2.15 7.948 3.198 L 7.948 1.838 L 9.284 1.635 L 9.284 6.609 L 7.948 6.609 L 7.948 5.026 C 7.897 6.082 7.236 6.708 6.163 6.708 C 5.546 6.708 5.034 6.47 4.689 6.021 C 4.344 5.576 4.163 4.915 4.163 4.117 C 4.163 3.319 4.344 2.661 4.689 2.213 C 5.034 1.765 5.546 1.526 6.163 1.526 Z M 11.393 3.201 C 11.444 2.149 12.102 1.526 13.179 1.526 C 14.437 1.526 15.188 2.496 15.188 4.117 C 15.188 5.738 14.437 6.708 13.179 6.708 C 12.105 6.708 11.444 6.082 11.393 5.026 L 11.393 6.609 L 10.058 6.609 L 10.058 0.392 L 11.393 0.188 L 11.393 3.201 Z M 17.035 3.201 C 17.086 2.149 17.745 1.526 18.821 1.526 C 20.08 1.527 20.83 2.496 20.83 4.117 C 20.83 5.738 20.08 6.708 18.821 6.708 C 17.748 6.708 17.086 6.082 17.035 5.026 L 17.035 6.609 L 15.699 6.609 L 15.699 0.392 L 17.035 0.188 L 17.035 3.201 Z M 2.191 0.388 C 2.191 1.017 1.732 1.65 0.927 1.806 L 1.251 1.763 L 3.747 1.38 L 3.747 2.324 L 2.111 2.575 L 2.111 2.883 L 2.115 2.883 L 2.115 3.013 L 3.747 2.763 L 3.747 3.666 L 2.111 3.917 L 2.111 4.928 C 2.111 4.943 2.115 4.959 2.115 4.975 L 2.115 5 C 2.144 5.385 2.415 5.461 2.895 5.461 C 3.121 5.461 3.361 5.408 3.537 5.315 L 3.553 5.306 L 3.553 6.485 L 3.546 6.488 C 3.239 6.625 2.84 6.707 2.476 6.707 C 1.45 6.707 0.824 6.144 0.779 5.2 L 0.779 4.121 L 0 4.241 L 0 3.338 L 0.779 3.218 L 0.779 2.779 L 0 2.899 L 0 1.955 L 0.79 1.833 L 0.856 1.815 L 0.856 0 L 2.191 0 L 2.191 0.388 Z M 6.77 2.575 C 5.987 2.575 5.521 3.154 5.521 4.117 C 5.521 5.077 5.987 5.649 6.77 5.649 C 7.527 5.649 8.019 5.049 8.019 4.117 C 8.019 3.663 7.903 3.278 7.689 3.001 C 7.469 2.722 7.15 2.575 6.77 2.575 Z M 12.571 2.578 C 12.191 2.578 11.872 2.724 11.651 3.004 C 11.437 3.277 11.322 3.663 11.322 4.117 C 11.322 5.048 11.811 5.649 12.571 5.649 C 13.354 5.649 13.821 5.077 13.821 4.12 C 13.821 3.154 13.354 2.578 12.571 2.578 Z M 18.217 2.578 C 17.837 2.578 17.517 2.724 17.297 3.004 C 17.083 3.277 16.968 3.663 16.968 4.117 C 16.968 5.048 17.457 5.649 18.217 5.649 C 18.999 5.649 19.466 5.077 19.466 4.12 C 19.466 3.154 19 2.578 18.217 2.578 Z" fill="currentColor" fill-rule="nonzero"></path>
</svg>