<svg xmlns="http://www.w3.org/2000/svg" width="30" height="5.890" viewBox="0 0 30 5.890" fill="none">
  <path d="M 7.623 1.559 C 7.623 1.641 7.537 1.693 7.465 1.656 C 7.141 1.489 6.774 1.398 6.384 1.407 C 5.177 1.436 4.198 2.437 4.196 3.644 C 4.194 4.884 5.199 5.89 6.438 5.89 C 6.808 5.89 7.158 5.8 7.465 5.64 C 7.538 5.603 7.624 5.656 7.624 5.737 C 7.624 5.798 7.673 5.846 7.733 5.846 L 8.675 5.846 C 8.736 5.846 8.784 5.797 8.784 5.737 L 8.784 1.56 C 8.784 1.499 8.735 1.451 8.675 1.451 L 7.733 1.451 C 7.672 1.451 7.623 1.501 7.623 1.56 L 7.623 1.559 Z M 7.599 3.737 C 7.557 4.267 7.127 4.696 6.597 4.738 C 5.923 4.791 5.365 4.233 5.418 3.559 C 5.46 3.029 5.89 2.599 6.42 2.557 C 7.094 2.504 7.652 3.063 7.599 3.737 Z" fill="currentColor" fill-rule="nonzero"></path>
  <path d="M 20.228 1.559 C 20.228 1.641 20.141 1.693 20.069 1.656 C 19.746 1.489 19.378 1.398 18.988 1.407 C 17.781 1.436 16.802 2.437 16.8 3.644 C 16.798 4.884 17.803 5.89 19.042 5.89 C 19.413 5.89 19.762 5.8 20.069 5.64 C 20.142 5.603 20.228 5.656 20.228 5.737 C 20.228 5.798 20.277 5.846 20.337 5.846 L 21.279 5.846 C 21.34 5.846 21.388 5.797 21.388 5.737 L 21.388 1.56 C 21.388 1.499 21.339 1.451 21.279 1.451 L 20.337 1.451 C 20.276 1.451 20.228 1.501 20.228 1.56 L 20.228 1.559 Z M 20.203 3.737 C 20.161 4.267 19.732 4.696 19.201 4.738 C 18.527 4.791 17.969 4.233 18.022 3.559 C 18.064 3.029 18.494 2.599 19.024 2.557 C 19.698 2.504 20.256 3.063 20.203 3.737 Z" fill="currentColor" fill-rule="nonzero"></path>
  <path d="M 28.84 1.559 C 28.84 1.641 28.754 1.693 28.681 1.656 C 28.358 1.489 27.99 1.398 27.6 1.407 C 26.394 1.435 25.414 2.437 25.412 3.644 C 25.41 4.884 26.415 5.89 27.654 5.89 C 28.024 5.89 28.374 5.8 28.681 5.64 C 28.754 5.603 28.84 5.656 28.84 5.737 C 28.84 5.798 28.889 5.846 28.949 5.846 L 29.891 5.846 C 29.952 5.846 30 5.797 30 5.737 L 30 1.56 C 30 1.499 29.951 1.451 29.891 1.451 L 28.949 1.451 C 28.889 1.451 28.84 1.501 28.84 1.56 L 28.84 1.559 Z M 28.816 3.737 C 28.774 4.267 28.344 4.696 27.814 4.738 C 27.14 4.791 26.582 4.233 26.635 3.559 C 26.677 3.029 27.106 2.599 27.636 2.557 C 28.311 2.504 28.869 3.063 28.816 3.737 Z" fill="currentColor" fill-rule="nonzero"></path>
  <path d="M 13.425 1.45 L 9.655 1.45 C 9.591 1.45 9.539 1.503 9.539 1.567 L 9.539 5.645 C 9.539 5.709 9.591 5.762 9.655 5.762 L 10.666 5.762 C 10.73 5.762 10.783 5.709 10.783 5.645 L 10.783 2.775 C 10.783 2.711 10.835 2.659 10.899 2.659 L 12.064 2.659 C 12.128 2.659 12.18 2.711 12.18 2.775 L 12.18 5.646 C 12.18 5.71 12.232 5.762 12.296 5.762 L 13.307 5.762 C 13.371 5.762 13.423 5.71 13.423 5.646 L 13.423 2.775 C 13.423 2.711 13.476 2.659 13.54 2.659 L 14.704 2.659 C 14.768 2.659 14.821 2.711 14.821 2.775 L 14.821 5.646 C 14.821 5.71 14.873 5.762 14.937 5.762 L 15.948 5.762 C 16.012 5.762 16.064 5.71 16.064 5.646 L 16.064 1.567 C 16.064 1.503 16.012 1.45 15.948 1.45 L 13.424 1.45 L 13.425 1.45 Z" fill="currentColor" fill-rule="nonzero"></path>
  <path d="M 2.219 2.658 L 3.304 2.658 C 3.331 2.658 3.354 2.637 3.354 2.608 L 3.354 1.5 C 3.354 1.473 3.332 1.45 3.304 1.45 L 2.219 1.45 C 2.191 1.45 2.168 1.428 2.168 1.4 L 2.168 0.05 C 2.168 0.029 2.157 0.011 2.137 0.004 C 2.12 -0.003 2.1 0 2.086 0.012 L 0.041 1.758 C 0.015 1.78 0 1.813 0 1.847 L 0 2.541 C 0 2.605 0.052 2.658 0.116 2.658 L 0.924 2.658 L 0.924 5.711 C 0.924 5.739 0.945 5.762 0.974 5.762 L 3.422 5.762 C 3.449 5.762 3.472 5.74 3.472 5.711 L 3.472 4.603 C 3.472 4.576 3.45 4.553 3.422 4.553 L 2.218 4.553 C 2.191 4.553 2.168 4.531 2.168 4.503 L 2.168 2.708 C 2.168 2.681 2.191 2.658 2.218 2.658 L 2.219 2.658 Z" fill="currentColor" fill-rule="nonzero"></path>
  <path d="M 23.397 1.71 L 23.397 1.543 C 23.397 1.479 23.345 1.427 23.281 1.427 L 22.27 1.427 C 22.206 1.427 22.154 1.479 22.154 1.543 L 22.154 5.645 C 22.154 5.709 22.206 5.762 22.27 5.762 L 23.281 5.762 C 23.345 5.762 23.397 5.709 23.397 5.645 L 23.397 3.183 C 23.397 3.133 23.428 3.089 23.474 3.073 L 24.766 2.604 C 24.812 2.587 24.843 2.543 24.843 2.495 L 24.843 1.356 L 24.796 1.321 L 23.558 1.82 C 23.481 1.851 23.398 1.794 23.398 1.712 L 23.397 1.71 Z" fill="currentColor" fill-rule="nonzero"></path>
</svg>