<svg xmlns="http://www.w3.org/2000/svg" width="15.417" height="16.667" viewBox="0 0 15.417 16.667" fill="none">
  <path d="M 0.55 16.667 C 0.433 16.667 0.283 16.583 0.2 16.5 C 0.083 16.433 0.033 16.283 0 16.167 L 0 3.85 C 0.033 3.733 0.083 3.583 0.2 3.5 C 0.283 3.433 0.433 3.35 0.55 3.35 L 3.983 3.35 C 4.05 2.45 4.483 1.583 5.183 0.967 C 5.85 0.35 6.767 0 7.7 0 C 8.65 0 9.55 0.35 10.233 0.967 C 10.933 1.583 11.333 2.45 11.417 3.35 L 14.85 3.35 C 14.983 3.35 15.1 3.433 15.217 3.517 C 15.267 3.567 15.317 3.617 15.333 3.667 C 15.383 3.733 15.383 3.817 15.417 3.85 L 15.417 16.167 C 15.383 16.283 15.317 16.4 15.217 16.5 C 15.183 16.533 15.133 16.583 15.05 16.617 C 14.983 16.633 14.933 16.667 14.867 16.667 L 0.55 16.667 Z M 5.15 3.35 L 10.233 3.35 C 10.217 2.717 9.95 2.117 9.483 1.667 C 9 1.233 8.367 0.967 7.7 1 C 7.033 0.967 6.417 1.233 5.933 1.667 C 5.467 2.117 5.183 2.717 5.15 3.35 Z" fill="currentColor" fill-rule="nonzero"></path>
</svg>