<svg xmlns="http://www.w3.org/2000/svg" width="6.592" height="8.333" viewBox="0 0 6.592 8.333" fill="none">
  <path d="M 3.725 7.267 C 4.175 7.2 4.583 6.958 4.908 6.642 C 5.225 6.317 5.458 5.908 5.533 5.467 C 5.558 5.308 5.575 5.158 5.575 5 C 5.575 4.692 5.533 4.417 5.408 4.117 C 5.225 3.692 4.942 3.333 4.55 3.075 C 4.183 2.817 3.725 2.675 3.292 2.675 C 2.675 2.675 2.075 2.917 1.667 3.35 C 1.233 3.8 0.992 4.375 0.992 5 C 0.992 5.467 1.133 5.908 1.383 6.292 C 1.608 6.683 1.975 6.958 2.417 7.142 C 2.692 7.267 2.983 7.317 3.258 7.317 C 3.417 7.317 3.567 7.3 3.725 7.267 Z M 3.933 8.283 C 3.725 8.333 3.517 8.333 3.308 8.333 C 2.883 8.333 2.433 8.25 2.017 8.075 C 1.442 7.833 0.925 7.4 0.533 6.85 C 0.167 6.317 0 5.667 0 5 L 0 0 L 0.975 0 L 0.975 2.625 C 1.592 2.008 2.417 1.683 3.292 1.683 C 3.933 1.683 4.583 1.85 5.117 2.242 C 5.658 2.608 6.075 3.125 6.333 3.742 C 6.508 4.117 6.592 4.533 6.592 4.975 C 6.592 5.183 6.558 5.408 6.508 5.65 C 6.383 6.292 6.075 6.892 5.617 7.35 C 5.15 7.833 4.583 8.142 3.933 8.283 Z" fill="currentColor" fill-rule="nonzero"></path>
</svg>