<svg xmlns="http://www.w3.org/2000/svg" width="17.590" height="19.017" viewBox="0 0 17.590 19.017" fill="none">
  <path d="M 0.628 19.017 C 0.494 19.017 0.323 18.921 0.228 18.826 C 0.095 18.75 0.038 18.579 0 18.446 L 0 4.393 C 0.038 4.26 0.095 4.089 0.228 3.993 C 0.323 3.917 0.494 3.822 0.628 3.822 L 4.545 3.822 C 4.621 2.795 5.115 1.807 5.914 1.103 C 6.675 0.399 7.721 0 8.786 0 C 9.87 0 10.896 0.399 11.676 1.103 C 12.475 1.807 12.931 2.795 13.026 3.822 L 16.944 3.822 C 17.096 3.822 17.229 3.917 17.362 4.012 C 17.419 4.07 17.476 4.127 17.495 4.184 C 17.552 4.26 17.552 4.355 17.59 4.393 L 17.59 18.446 C 17.552 18.579 17.476 18.712 17.362 18.826 C 17.324 18.864 17.267 18.921 17.172 18.96 C 17.096 18.979 17.039 19.017 16.963 19.017 L 0.628 19.017 Z M 5.876 3.822 L 11.676 3.822 C 11.657 3.1 11.353 2.415 10.82 1.902 C 10.269 1.407 9.546 1.103 8.786 1.141 C 8.025 1.103 7.321 1.407 6.77 1.902 C 6.237 2.415 5.914 3.1 5.876 3.822 Z" fill="currentColor" fill-rule="nonzero"></path>
</svg>