<svg xmlns="http://www.w3.org/2000/svg" width="20.000" height="19.702" viewBox="0 0 20.000 19.702" fill="none">
  <path d="M 10 17.694 C 10.291 17.695 10.527 17.93 10.527 18.222 L 10.527 19.174 C 10.527 19.465 10.291 19.702 10 19.702 C 9.708 19.702 9.472 19.465 9.472 19.174 L 9.472 18.222 C 9.472 17.93 9.708 17.694 10 17.694 Z M 10 0 C 10.505 0 10.958 0.282 11.182 0.735 L 13.139 4.7 C 13.178 4.778 13.253 4.832 13.339 4.845 L 17.714 5.48 C 18.215 5.553 18.623 5.898 18.779 6.379 C 18.935 6.86 18.807 7.378 18.445 7.73 L 15.279 10.817 C 15.217 10.878 15.188 10.965 15.203 11.051 L 15.95 15.409 C 16.035 15.907 15.834 16.402 15.425 16.699 L 15.338 16.758 C 15.127 16.887 14.89 16.952 14.652 16.952 L 14.495 16.943 C 14.39 16.931 14.286 16.905 14.185 16.867 L 14.037 16.8 L 10.123 14.742 C 10.046 14.702 9.953 14.702 9.877 14.742 L 5.963 16.8 L 5.792 16.875 C 5.443 17 5.06 16.973 4.733 16.799 L 4.574 16.699 C 4.216 16.439 4.017 16.028 4.03 15.596 L 4.049 15.409 L 4.797 11.051 C 4.811 10.965 4.782 10.878 4.72 10.817 L 1.554 7.73 C 1.238 7.422 1.1 6.987 1.175 6.561 L 1.22 6.379 C 1.377 5.898 1.784 5.553 2.285 5.48 L 6.662 4.845 C 6.726 4.835 6.784 4.802 6.825 4.754 L 6.86 4.701 L 8.817 0.735 C 9.041 0.282 9.494 0 10 0 Z M 10.033 13.657 C 10.233 13.662 10.432 13.712 10.614 13.808 L 14.528 15.865 C 14.626 15.917 14.71 15.897 14.763 15.871 L 14.805 15.846 C 14.84 15.82 14.913 15.753 14.915 15.64 L 14.911 15.588 L 14.852 15.248 L 14.852 15.247 L 14.163 11.229 C 14.099 10.855 14.199 10.474 14.433 10.182 L 14.543 10.062 L 17.709 6.975 C 17.814 6.872 17.791 6.753 17.776 6.705 C 17.763 6.664 17.721 6.573 17.613 6.537 L 17.562 6.525 L 17.222 6.476 L 13.186 5.89 C 12.81 5.835 12.48 5.621 12.274 5.308 L 12.193 5.168 L 10.236 1.202 C 10.182 1.094 10.091 1.064 10.033 1.057 L 10.033 13.657 Z M 1.27 11.498 C 1.547 11.408 1.845 11.559 1.935 11.836 C 2.025 12.113 1.873 12.411 1.596 12.501 L 0.69 12.796 C 0.636 12.813 0.581 12.821 0.527 12.821 C 0.305 12.821 0.099 12.68 0.026 12.457 C -0.064 12.18 0.087 11.882 0.364 11.792 L 1.27 11.498 Z M 18.064 11.836 C 18.154 11.559 18.452 11.408 18.729 11.498 L 19.635 11.792 C 19.912 11.882 20.064 12.18 19.974 12.457 C 19.902 12.68 19.695 12.821 19.472 12.821 C 19.418 12.821 19.363 12.813 19.309 12.796 L 18.403 12.501 C 18.126 12.411 17.974 12.113 18.064 11.836 Z M 15.426 0.852 C 15.598 0.616 15.927 0.563 16.163 0.734 C 16.398 0.906 16.451 1.236 16.28 1.472 L 15.719 2.242 C 15.616 2.384 15.456 2.46 15.293 2.46 C 15.185 2.46 15.077 2.427 14.983 2.359 C 14.747 2.188 14.695 1.858 14.866 1.622 L 15.426 0.852 Z M 3.834 0.731 C 4.069 0.56 4.4 0.613 4.571 0.849 L 5.131 1.619 C 5.301 1.855 5.25 2.184 5.014 2.355 C 4.921 2.423 4.812 2.457 4.705 2.457 C 4.542 2.457 4.38 2.381 4.277 2.239 L 3.717 1.469 C 3.546 1.233 3.598 0.903 3.834 0.731 Z" fill="currentColor" fill-rule="evenodd"></path>
</svg>