<svg xmlns="http://www.w3.org/2000/svg" width="17.770" height="17.214" viewBox="0 0 17.770 17.214" fill="none">
  <path d="M 7.987 0.673 C 8.477 -0.216 9.751 -0.226 10.255 0.653 L 12.562 4.68 C 12.606 4.756 12.682 4.81 12.769 4.826 L 16.702 5.543 C 17.693 5.724 18.11 6.913 17.45 7.674 L 14.5 11.075 C 14.443 11.141 14.417 11.229 14.43 11.315 L 15.067 15.709 C 15.217 16.749 14.136 17.529 13.196 17.058 L 9.244 15.07 C 9.16 15.028 9.061 15.028 8.977 15.069 L 4.918 17.077 C 3.982 17.54 2.909 16.766 3.054 15.731 L 3.669 11.34 C 3.682 11.249 3.652 11.157 3.588 11.091 L 0.363 7.732 C -0.362 6.977 0.058 5.717 1.092 5.549 L 5.573 4.82 C 5.664 4.805 5.743 4.749 5.787 4.669 L 7.987 0.673 Z M 9.155 14.041 C 9.34 14.047 9.524 14.092 9.694 14.177 L 13.646 16.164 C 13.862 16.273 14.112 16.092 14.077 15.853 L 13.44 11.459 C 13.386 11.085 13.497 10.705 13.744 10.42 L 16.695 7.019 C 16.848 6.843 16.751 6.569 16.523 6.527 L 12.589 5.81 C 12.212 5.741 11.885 5.509 11.695 5.177 L 9.387 1.15 C 9.335 1.06 9.247 1.012 9.155 1.003 L 9.155 14.041 Z" fill="currentColor" fill-rule="evenodd"></path>
</svg>