<svg xmlns="http://www.w3.org/2000/svg" width="16.500" height="17.838" viewBox="0 0 16.500 17.838" fill="none">
  <path d="M 8.241 0 C 9.258 0 10.221 0.374 10.952 1.034 C 11.701 1.694 12.129 2.622 12.219 3.585 L 15.894 3.585 C 16.036 3.585 16.161 3.675 16.286 3.764 C 16.34 3.817 16.392 3.871 16.41 3.925 C 16.464 3.996 16.464 4.084 16.5 4.12 L 16.5 17.303 C 16.464 17.427 16.393 17.552 16.286 17.659 C 16.25 17.695 16.197 17.749 16.107 17.784 C 16.036 17.802 15.982 17.838 15.911 17.838 L 0.589 17.838 C 0.464 17.838 0.303 17.748 0.214 17.659 C 0.089 17.588 0.036 17.428 0 17.303 L 0 4.12 C 0.036 3.995 0.089 3.835 0.214 3.746 C 0.303 3.675 0.464 3.585 0.589 3.585 L 4.263 3.585 C 4.334 2.622 4.799 1.694 5.548 1.034 C 6.261 0.374 7.243 0 8.241 0 Z M 1.053 4.584 L 1.053 16.839 L 15.43 16.839 L 15.43 4.584 L 1.053 4.584 Z M 8.241 7.919 C 9.383 7.919 10.311 8.829 10.311 9.971 C 10.31 10.951 9.646 11.751 8.75 11.975 L 8.75 14.225 C 8.75 14.363 8.699 14.475 8.638 14.475 C 8.432 14.71 8.067 14.71 7.861 14.475 C 7.8 14.474 7.75 14.362 7.75 14.225 L 7.75 11.978 C 6.86 11.758 6.19 10.956 6.189 9.971 C 6.189 8.829 7.117 7.919 8.241 7.919 Z M 8.241 1.07 C 7.528 1.035 6.867 1.32 6.35 1.784 C 5.851 2.266 5.548 2.907 5.512 3.585 L 10.952 3.585 C 10.934 2.907 10.649 2.266 10.149 1.784 C 9.632 1.32 8.955 1.035 8.241 1.07 Z" fill="currentColor" fill-rule="nonzero"></path>
</svg>