<svg xmlns="http://www.w3.org/2000/svg" width="20.000" height="19.702" viewBox="0 0 20.000 19.702" fill="none">
  <path d="M 10.001 17.694 C 10.292 17.694 10.528 17.93 10.528 18.222 L 10.528 19.174 C 10.528 19.465 10.292 19.702 10.001 19.702 C 9.709 19.702 9.473 19.465 9.473 19.174 L 9.473 18.222 C 9.473 17.93 9.709 17.694 10.001 17.694 Z M 10.001 0 C 10.506 0 10.959 0.282 11.183 0.735 L 13.14 4.7 C 13.179 4.778 13.254 4.832 13.339 4.845 L 17.715 5.48 C 18.216 5.553 18.624 5.897 18.78 6.378 C 18.936 6.859 18.808 7.377 18.446 7.73 L 15.28 10.816 C 15.218 10.877 15.189 10.965 15.204 11.051 L 15.951 15.409 C 16.036 15.907 15.835 16.402 15.426 16.699 C 15.195 16.867 14.925 16.952 14.653 16.952 C 14.443 16.952 14.232 16.901 14.038 16.799 L 10.124 14.741 C 10.047 14.701 9.954 14.701 9.877 14.741 L 5.963 16.799 C 5.516 17.034 4.984 16.996 4.575 16.699 C 4.166 16.402 3.965 15.908 4.05 15.409 L 4.797 11.051 C 4.812 10.965 4.783 10.877 4.721 10.816 L 1.555 7.73 C 1.193 7.377 1.065 6.859 1.221 6.378 C 1.378 5.897 1.785 5.553 2.286 5.48 L 6.663 4.845 C 6.748 4.832 6.822 4.778 6.861 4.7 L 8.818 0.735 C 9.042 0.282 9.495 0 10.001 0 Z M 1.271 11.498 C 1.548 11.408 1.846 11.559 1.936 11.836 C 2.026 12.113 1.874 12.411 1.597 12.501 L 0.691 12.796 C 0.637 12.813 0.582 12.821 0.528 12.821 C 0.306 12.821 0.098 12.68 0.026 12.457 C -0.064 12.18 0.088 11.882 0.365 11.792 L 1.271 11.498 Z M 18.065 11.836 C 18.155 11.559 18.453 11.408 18.73 11.498 L 19.636 11.792 C 19.913 11.882 20.064 12.18 19.974 12.457 C 19.902 12.68 19.695 12.821 19.473 12.821 C 19.419 12.821 19.364 12.813 19.31 12.796 L 18.404 12.501 C 18.127 12.411 17.975 12.113 18.065 11.836 Z M 15.427 0.852 C 15.599 0.616 15.928 0.563 16.164 0.734 C 16.399 0.906 16.452 1.236 16.281 1.472 L 15.72 2.242 C 15.617 2.384 15.457 2.46 15.294 2.46 C 15.186 2.46 15.078 2.427 14.984 2.359 C 14.748 2.188 14.696 1.858 14.867 1.622 L 15.427 0.852 Z M 3.835 0.731 C 4.07 0.56 4.401 0.613 4.572 0.849 L 5.131 1.619 C 5.303 1.855 5.251 2.184 5.015 2.355 C 4.922 2.423 4.813 2.457 4.706 2.457 C 4.542 2.457 4.381 2.381 4.278 2.239 L 3.718 1.469 C 3.547 1.233 3.599 0.903 3.835 0.731 Z" fill="currentColor" fill-rule="evenodd"></path>
</svg>