<svg xmlns="http://www.w3.org/2000/svg" width="20" height="19.702" viewBox="0 0 20 19.702" fill="none">
  <path d="M 10 17.694 C 10.291 17.694 10.527 17.93 10.527 18.222 L 10.527 19.174 C 10.527 19.465 10.291 19.702 10 19.702 C 9.708 19.702 9.472 19.465 9.472 19.174 L 9.472 18.222 C 9.472 17.931 9.708 17.695 10 17.694 Z M 10 0 C 10.505 0 10.959 0.281 11.183 0.734 L 13.139 4.7 C 13.178 4.778 13.253 4.832 13.338 4.845 L 17.714 5.48 C 18.215 5.553 18.623 5.897 18.779 6.378 C 18.935 6.859 18.808 7.377 18.446 7.73 L 15.279 10.816 C 15.217 10.877 15.189 10.964 15.204 11.05 L 15.951 15.409 C 16.036 15.907 15.835 16.402 15.426 16.699 L 15.337 16.758 C 15.127 16.887 14.89 16.952 14.652 16.952 C 14.469 16.952 14.284 16.913 14.111 16.835 L 14.037 16.799 L 10.123 14.741 C 10.046 14.701 9.954 14.701 9.878 14.741 L 5.963 16.799 C 5.544 17.019 5.049 16.999 4.652 16.751 L 4.574 16.699 C 4.165 16.402 3.964 15.907 4.049 15.409 L 4.796 11.05 C 4.807 10.986 4.795 10.921 4.761 10.867 L 4.721 10.816 L 1.554 7.73 C 1.215 7.4 1.081 6.923 1.195 6.469 L 1.221 6.378 C 1.368 5.927 1.735 5.596 2.193 5.497 L 2.286 5.48 L 6.662 4.845 C 6.748 4.832 6.821 4.778 6.86 4.7 L 8.817 0.734 C 9.041 0.281 9.494 0 10 0 Z M 10.001 1.055 C 9.951 1.055 9.829 1.069 9.763 1.202 L 7.806 5.167 L 7.768 5.238 C 7.568 5.589 7.217 5.83 6.814 5.889 L 2.438 6.524 C 2.292 6.546 2.239 6.657 2.224 6.704 C 2.209 6.751 2.186 6.871 2.292 6.975 L 5.458 10.062 C 5.768 10.365 5.911 10.801 5.837 11.229 L 5.089 15.587 C 5.064 15.733 5.155 15.816 5.195 15.845 C 5.235 15.874 5.341 15.934 5.472 15.865 L 9.386 13.808 C 9.578 13.707 9.79 13.656 10.001 13.656 L 10.079 13.658 C 10.263 13.669 10.446 13.719 10.614 13.808 L 14.528 15.865 C 14.626 15.917 14.711 15.896 14.764 15.87 L 14.806 15.845 C 14.841 15.819 14.914 15.752 14.915 15.639 L 14.911 15.587 L 14.163 11.229 C 14.089 10.801 14.232 10.364 14.543 10.062 L 17.709 6.975 C 17.814 6.871 17.791 6.751 17.776 6.704 C 17.763 6.663 17.722 6.572 17.614 6.536 L 17.563 6.524 L 13.187 5.889 C 12.784 5.83 12.433 5.59 12.232 5.239 L 12.194 5.167 L 10.237 1.202 C 10.172 1.07 10.05 1.055 10.001 1.055 Z M 1.271 11.497 C 1.548 11.408 1.845 11.559 1.935 11.836 C 2.025 12.113 1.873 12.411 1.596 12.501 L 0.69 12.796 C 0.636 12.813 0.581 12.821 0.527 12.821 C 0.305 12.821 0.098 12.68 0.026 12.457 C -0.064 12.18 0.088 11.882 0.365 11.792 L 1.271 11.497 Z M 18.064 11.836 C 18.154 11.559 18.452 11.407 18.729 11.497 L 19.635 11.792 C 19.912 11.882 20.064 12.18 19.974 12.457 C 19.902 12.68 19.695 12.821 19.472 12.821 C 19.418 12.821 19.363 12.813 19.309 12.796 L 18.403 12.501 C 18.126 12.411 17.974 12.113 18.064 11.836 Z M 15.426 0.852 C 15.598 0.616 15.928 0.563 16.164 0.734 C 16.399 0.906 16.451 1.236 16.28 1.472 L 15.719 2.242 C 15.616 2.384 15.456 2.46 15.293 2.46 C 15.185 2.46 15.077 2.426 14.983 2.358 C 14.747 2.187 14.695 1.858 14.866 1.622 L 15.426 0.852 Z M 3.834 0.731 C 4.069 0.56 4.4 0.613 4.571 0.849 L 5.131 1.619 C 5.302 1.855 5.25 2.184 5.014 2.355 C 4.921 2.423 4.812 2.456 4.705 2.456 C 4.541 2.456 4.38 2.381 4.277 2.239 L 3.717 1.469 C 3.546 1.233 3.598 0.903 3.834 0.731 Z" fill="currentColor" fill-rule="evenodd"></path>
</svg>