<svg xmlns="http://www.w3.org/2000/svg" width="18" height="18" viewBox="0 0 18 18" fill="none">
  <path d="M 13.375 11.343 L 13.499 11.219 C 13.705 11.013 13.705 10.679 13.499 10.473 C 13.293 10.267 12.959 10.267 12.753 10.473 L 11.634 11.592 L 10.389 10.346 L 11.561 9.173 C 13.257 9.82 15.251 9.461 16.615 8.097 C 17.92 6.792 18.348 4.828 17.705 3.092 C 17.572 2.731 17.11 2.63 16.838 2.902 L 14.837 4.903 L 13.445 4.555 L 13.097 3.163 L 15.098 1.162 C 15.37 0.89 15.269 0.428 14.908 0.295 C 13.172 -0.348 11.208 0.08 9.903 1.385 C 8.539 2.749 8.18 4.743 8.827 6.439 L 7.654 7.611 L 4.235 4.193 L 3.774 2.346 C 3.75 2.253 3.702 2.168 3.635 2.101 L 2.392 0.858 C 2.186 0.652 1.852 0.652 1.646 0.858 L 0.155 2.349 C -0.051 2.555 -0.051 2.889 0.155 3.095 L 1.397 4.338 C 1.465 4.405 1.55 4.453 1.642 4.477 L 3.489 4.938 L 6.908 8.357 L 0.565 14.7 C -0.188 15.454 -0.188 16.681 0.565 17.435 C 1.319 18.188 2.546 18.188 3.3 17.435 L 9.643 11.092 L 10.889 12.338 L 9.77 13.456 C 9.564 13.662 9.564 13.996 9.77 14.202 C 9.976 14.408 10.31 14.408 10.516 14.202 L 10.64 14.078 L 13.996 17.434 C 14.75 18.188 15.977 18.188 16.73 17.434 C 17.484 16.68 17.484 15.453 16.73 14.699 L 13.375 11.343 Z M 2.04 3.489 L 1.273 2.722 L 2.019 1.976 L 2.786 2.743 L 3.034 3.737 L 2.04 3.489 Z M 10.648 2.131 C 11.454 1.326 12.582 0.95 13.689 1.079 L 12.14 2.628 C 12.009 2.759 11.956 2.949 12.001 3.129 L 12.498 5.118 C 12.546 5.307 12.693 5.454 12.882 5.502 L 14.871 5.999 C 15.051 6.044 15.241 5.991 15.372 5.86 L 16.921 4.311 C 17.05 5.418 16.674 6.546 15.869 7.352 C 14.43 8.791 12.088 8.791 10.648 7.352 C 9.209 5.912 9.209 3.57 10.648 2.131 Z M 2.554 16.689 C 2.211 17.031 1.654 17.031 1.311 16.689 C 0.969 16.346 0.969 15.788 1.311 15.446 L 9.339 7.418 C 9.503 7.657 9.69 7.885 9.903 8.097 C 10.115 8.31 10.343 8.497 10.582 8.661 L 2.554 16.689 Z M 15.985 16.688 C 15.642 17.031 15.084 17.031 14.742 16.688 L 11.386 13.332 L 12.629 12.089 L 15.985 15.445 C 16.327 15.788 16.327 16.345 15.985 16.688 Z" fill="currentColor" fill-rule="nonzero"></path>
</svg>