<svg xmlns="http://www.w3.org/2000/svg" width="17.507" height="17.832" viewBox="0 0 17.507 17.832" fill="none">
  <path d="M 0.883 9.822 L 9.822 0.883 L 15.426 6.487 C 17.687 8.748 16.908 10.474 15.857 11.526 C 15.207 12.177 14.426 12.493 13.631 12.436 C 13.92 13.829 13.567 15.031 12.581 16.017 C 10.884 17.714 8.652 17.591 6.758 15.697 L 0.883 9.822 Z M 9.822 1.529 L 1.529 9.822 L 7.082 15.375 C 8.777 17.07 10.759 17.193 12.257 15.695 C 13.196 14.756 13.483 13.588 13.11 12.225 L 13.01 11.864 L 13.376 11.94 C 14.145 12.1 14.891 11.845 15.533 11.204 C 16.847 9.89 16.701 8.412 15.102 6.813 L 9.822 1.529 Z M 2.945 9.902 L 6.496 6.35 L 11.511 11.364 C 12.571 12.425 12.557 13.805 11.48 14.885 C 10.384 15.98 9.035 15.992 7.959 14.916 L 2.945 9.902 Z M 6.496 6.996 L 3.591 9.902 L 8.281 14.592 C 9.172 15.482 10.245 15.469 11.153 14.561 C 12.063 13.651 12.075 12.577 11.185 11.687 L 6.496 6.996 Z M 7.164 5.68 L 9.902 2.943 L 14.531 7.572 C 15.814 8.855 15.336 9.873 14.707 10.501 C 13.842 11.366 12.78 11.296 11.794 10.31 L 7.164 5.68 Z M 9.902 3.591 L 7.812 5.68 L 12.118 9.986 C 12.934 10.802 13.696 10.866 14.383 10.177 C 15.102 9.459 15.045 8.734 14.207 7.894 L 9.902 3.591 Z" fill="currentColor" fill-rule="nonzero"></path>
  <path d="M 0 9.822 L 9.822 0 L 15.869 6.045 C 16.824 7 18.778 9.49 16.301 11.968 C 15.725 12.544 15.051 12.905 14.34 13.024 C 14.424 14.326 13.971 15.51 13.022 16.459 C 11.083 18.4 8.451 18.273 6.317 16.14 L 0 9.822 Z M 9.822 0.646 L 0.646 9.822 L 6.641 15.816 C 8.578 17.753 10.956 17.878 12.7 16.137 C 13.614 15.223 14.006 14.118 13.866 12.852 L 13.84 12.622 L 14.073 12.6 C 14.758 12.536 15.416 12.206 15.976 11.645 C 17.082 10.54 17.904 8.728 15.545 6.371 L 9.822 0.646 Z M 13.192 11.265 C 13.77 11.335 14.334 11.112 14.824 10.622 C 15.789 9.658 15.726 8.535 14.649 7.457 L 9.902 2.708 L 6.928 5.68 L 11.677 10.429 C 12.067 10.82 12.473 11.079 12.885 11.2 L 13.192 11.265 Z M 12.776 11.638 L 12.95 12.268 C 13.313 13.586 13.047 14.67 12.141 15.576 C 10.693 17.023 8.847 16.902 7.201 15.256 L 1.765 9.822 L 9.822 1.765 L 14.984 6.928 C 16.527 8.471 16.67 9.832 15.416 11.083 C 14.998 11.501 14.311 11.962 13.411 11.774 L 13.118 11.714 L 12.776 11.638 Z M 6.496 6.112 L 2.708 9.9 L 7.84 15.031 C 8.988 16.18 10.429 16.168 11.597 15 C 12.729 13.868 12.743 12.356 11.628 11.243 L 6.496 6.112 Z M 3.827 9.902 L 6.496 7.233 L 11.068 11.804 C 11.884 12.62 11.872 13.606 11.036 14.442 C 10.189 15.289 9.226 15.301 8.398 14.473 L 3.827 9.902 Z M 6.496 7.879 L 4.475 9.902 L 8.722 14.149 C 9.373 14.799 10.042 14.787 10.712 14.118 C 11.364 13.465 11.376 12.758 10.743 12.128 L 6.496 7.879 Z M 8.047 5.68 L 9.9 3.827 L 14.088 8.016 C 14.867 8.795 14.92 9.406 14.264 10.062 C 13.645 10.681 12.981 10.618 12.233 9.871 L 8.047 5.68 Z M 9.902 4.473 L 8.695 5.68 L 12.559 9.544 C 13.286 10.271 13.655 10.025 13.942 9.736 C 14.299 9.378 14.496 9.068 13.766 8.338 L 9.902 4.473 Z" fill="currentColor" fill-rule="nonzero"></path>
</svg>