<svg xmlns="http://www.w3.org/2000/svg" width="17.729" height="12.676" viewBox="0 0 17.729 12.676" fill="none">
  <path d="M 11.479 0.155 L 13.189 2.123 L 16.977 2.123 C 17.173 2.123 17.344 2.198 17.476 2.321 L 17.529 2.377 L 17.614 2.491 C 17.689 2.612 17.729 2.751 17.729 2.901 L 17.729 11.923 C 17.729 12.125 17.654 12.312 17.51 12.456 C 17.365 12.6 17.179 12.676 16.977 12.676 L 0.754 12.676 C 0.552 12.676 0.365 12.6 0.221 12.456 C 0.076 12.312 0 12.125 0 11.923 L 0 2.901 C 0 2.702 0.074 2.522 0.201 2.377 L 0.255 2.321 C 0.387 2.198 0.558 2.123 0.754 2.123 L 4.54 2.123 L 6.251 0.155 L 6.386 0 L 11.345 0 L 11.479 0.155 Z M 5.086 2.868 L 4.951 3.022 L 0.9 3.022 L 0.9 11.775 L 16.83 11.775 L 16.83 3.022 L 12.778 3.022 L 12.645 2.868 L 10.935 0.9 L 6.796 0.9 L 5.086 2.868 Z M 8.865 3.075 C 9.929 3.075 10.847 3.443 11.591 4.175 C 12.337 4.909 12.711 5.825 12.711 6.892 C 12.711 7.975 12.339 8.901 11.591 9.638 C 10.847 10.37 9.929 10.737 8.865 10.737 C 7.784 10.737 6.858 10.372 6.121 9.636 C 5.384 8.899 5.019 7.973 5.019 6.892 C 5.019 5.827 5.386 4.913 6.121 4.178 C 6.858 3.441 7.784 3.075 8.865 3.075 Z M 8.865 3.976 C 8.006 3.976 7.314 4.258 6.757 4.814 C 6.198 5.373 5.919 6.056 5.919 6.892 C 5.919 7.75 6.2 8.442 6.757 8.999 C 7.314 9.556 8.006 9.838 8.865 9.838 C 9.701 9.838 10.39 9.558 10.96 8.997 C 11.526 8.44 11.811 7.748 11.812 6.892 C 11.812 6.058 11.528 5.376 10.96 4.816 C 10.39 4.255 9.701 3.976 8.865 3.976 Z" fill="currentColor" fill-rule="nonzero"></path>
</svg>