<svg xmlns="http://www.w3.org/2000/svg" width="17.525" height="18.240" viewBox="0 0 17.525 18.240" fill="none">
  <path d="M 11.32 12.233 C 11.822 12.284 12.214 12.709 12.214 13.225 L 12.214 17.244 C 12.214 17.794 11.769 18.24 11.219 18.24 L 11.116 18.234 C 10.614 18.183 10.223 17.76 10.223 17.244 L 10.223 13.225 C 10.223 12.675 10.669 12.229 11.219 12.229 L 11.32 12.233 Z M 11.219 12.828 C 11 12.828 10.822 13.006 10.822 13.225 L 10.822 17.244 C 10.822 17.463 11 17.64 11.219 17.64 C 11.437 17.639 11.614 17.463 11.614 17.244 L 11.614 13.225 C 11.614 13.006 11.437 12.828 11.219 12.828 Z" fill="currentColor" fill-rule="evenodd"></path>
  <path d="M 9.359 15.732 L 0.498 15.732 C 0.223 15.732 0 15.509 0 15.234 C 0 14.96 0.223 14.736 0.498 14.736 L 9.359 14.736 L 9.359 15.732 Z" fill="currentColor" fill-rule="nonzero"></path>
  <path d="M 17.027 14.736 C 17.302 14.736 17.525 14.96 17.525 15.234 C 17.525 15.509 17.302 15.732 17.027 15.732 L 13.078 15.732 L 13.078 14.736 L 17.027 14.736 Z" fill="currentColor" fill-rule="nonzero"></path>
  <path d="M 7.711 6.27 L 4.85 6.27 L 4.85 5.469 L 7.711 5.469 L 7.711 6.27 Z" fill="currentColor" fill-rule="nonzero"></path>
  <path d="M 11.938 5.469 L 12.97 5.469 L 12.97 6.27 L 11.938 6.27 L 11.938 7.29 L 11.138 7.29 L 11.138 6.27 L 10.107 6.27 L 10.107 5.469 L 11.138 5.469 L 11.138 4.448 L 11.938 4.448 L 11.938 5.469 Z" fill="currentColor" fill-rule="nonzero"></path>
  <path d="M 8.762 0 C 12.022 0 14.67 2.625 14.67 5.869 C 14.67 9.113 12.022 11.737 8.762 11.737 C 5.502 11.737 2.854 9.113 2.854 5.869 C 2.854 2.625 5.502 0 8.762 0 Z M 8.538 0.806 C 5.819 0.922 3.654 3.147 3.654 5.869 C 3.654 8.591 5.819 10.815 8.538 10.932 L 8.538 0.806 Z M 9.339 10.904 C 11.89 10.62 13.87 8.472 13.87 5.869 C 13.87 3.266 11.891 1.117 9.339 0.833 L 9.339 10.904 Z" fill="currentColor" fill-rule="evenodd"></path>
</svg>