<svg xmlns="http://www.w3.org/2000/svg" width="18.824" height="16.967" viewBox="0 0 18.824 16.967" fill="none">
  <path d="M 15.006 9.331 C 17.114 9.331 18.824 11.04 18.824 13.148 C 18.824 15.257 17.114 16.966 15.006 16.967 C 12.897 16.966 11.188 15.257 11.188 13.148 C 11.189 11.04 12.897 9.331 15.006 9.331 Z M 15.006 10.03 C 13.284 10.03 11.888 11.427 11.887 13.148 C 11.887 14.637 12.931 15.881 14.326 16.191 L 14.047 14.234 L 13.942 14.234 L 13.903 14.032 L 13.498 11.95 C 13.456 11.728 13.515 11.496 13.661 11.322 L 13.795 11.18 C 14.124 10.865 14.569 10.683 15.039 10.682 C 15.576 10.683 16.08 10.921 16.418 11.322 C 16.564 11.496 16.625 11.726 16.582 11.95 L 16.176 14.032 L 16.136 14.234 L 16.038 14.234 L 15.76 16.174 C 17.117 15.836 18.124 14.61 18.124 13.148 C 18.123 11.427 16.727 10.03 15.006 10.03 Z M 15.039 11.182 C 14.89 11.183 14.743 11.208 14.607 11.256 L 14.702 12.826 L 14.254 11.444 C 14.177 11.502 14.106 11.57 14.044 11.644 C 13.995 11.702 13.975 11.78 13.989 11.855 L 14.355 13.734 L 15.724 13.734 L 16.091 11.854 C 16.105 11.78 16.085 11.703 16.036 11.644 C 15.955 11.548 15.859 11.465 15.755 11.396 L 15.292 12.826 L 15.387 11.231 C 15.275 11.2 15.158 11.182 15.039 11.182 Z" fill="currentColor" fill-rule="evenodd"></path>
  <path d="M 15.637 0.485 C 15.851 0.539 15.981 0.757 15.928 0.971 C 15.484 2.732 14.447 4.691 13.058 6.207 C 12.915 6.363 12.766 6.514 12.614 6.661 C 12.615 6.671 12.618 6.682 12.618 6.692 L 12.618 8.653 C 12.618 8.874 12.438 9.053 12.218 9.054 C 11.997 9.053 11.818 8.874 11.818 8.653 L 11.818 7.355 C 10.672 8.248 9.351 8.832 7.942 8.813 L 7.943 8.814 C 7.941 8.814 7.939 8.813 7.937 8.813 C 7.935 8.813 7.933 8.814 7.931 8.814 C 6.523 8.832 5.202 8.248 4.057 7.357 L 4.057 10.614 C 4.057 11.648 3.205 12.278 2.535 12.619 C 2.182 12.799 1.833 12.924 1.574 13.004 C 1.444 13.044 1.335 13.072 1.258 13.092 C 1.219 13.101 1.188 13.109 1.167 13.114 C 1.156 13.116 1.147 13.119 1.141 13.12 C 1.139 13.121 1.135 13.121 1.134 13.121 L 1.132 13.122 L 1.13 13.122 C 0.913 13.167 0.702 13.027 0.657 12.811 C 0.612 12.595 0.751 12.384 0.968 12.339 C 0.968 12.339 0.97 12.338 0.971 12.338 C 0.975 12.337 0.981 12.336 0.989 12.334 C 1.005 12.33 1.031 12.324 1.063 12.316 C 1.129 12.3 1.224 12.274 1.339 12.239 C 1.569 12.168 1.872 12.058 2.172 11.906 C 2.805 11.583 3.258 11.155 3.258 10.614 L 3.258 6.66 C 3.136 6.542 3.016 6.422 2.9 6.299 C 1.526 4.833 0.488 2.935 0.014 1.213 C -0.044 1 0.081 0.779 0.294 0.721 C 0.507 0.662 0.727 0.787 0.786 1 C 1.225 2.596 2.198 4.38 3.484 5.752 C 4.775 7.128 6.33 8.039 7.931 8.014 L 7.943 8.014 C 9.576 8.04 11.162 7.092 12.469 5.666 C 13.77 4.245 14.742 2.404 15.152 0.775 C 15.206 0.561 15.423 0.431 15.637 0.485 Z" fill="currentColor" fill-rule="nonzero"></path>
  <path d="M 8.705 0.09 C 9.03 -0.01 9.415 -0.053 9.803 0.102 C 10.119 0.229 10.389 0.5 10.578 0.726 C 10.724 0.901 10.899 1.054 11.095 1.181 L 11.297 1.301 C 11.332 1.319 11.367 1.34 11.4 1.359 C 11.406 1.361 11.413 1.363 11.419 1.366 C 11.44 1.376 11.509 1.407 11.568 1.473 C 11.632 1.546 11.665 1.637 11.668 1.729 C 11.668 1.735 11.67 1.741 11.67 1.747 C 11.67 1.749 11.668 1.752 11.668 1.755 C 11.667 1.78 11.664 1.805 11.658 1.83 C 11.655 1.845 11.649 1.86 11.644 1.875 C 11.642 1.882 11.639 1.889 11.636 1.895 C 11.615 1.949 11.583 1.997 11.54 2.037 C 11.377 2.228 11.187 2.395 11.024 2.537 C 11.02 2.541 11.015 2.544 11.011 2.548 C 10.347 3.074 9.24 3.819 7.937 3.819 C 6.644 3.819 5.544 3.084 4.879 2.558 C 4.63 2.398 4.461 2.195 4.329 2.032 C 4.268 1.973 4.229 1.898 4.215 1.814 C 4.212 1.801 4.21 1.787 4.209 1.773 C 4.208 1.765 4.205 1.756 4.205 1.747 C 4.205 1.743 4.207 1.74 4.207 1.736 C 4.208 1.642 4.24 1.548 4.306 1.473 C 4.366 1.406 4.435 1.376 4.456 1.366 C 4.465 1.362 4.474 1.359 4.482 1.356 C 4.562 1.311 4.662 1.258 4.759 1.211 C 5.003 1.092 5.226 0.937 5.414 0.75 C 5.65 0.514 5.972 0.231 6.29 0.103 C 6.679 -0.052 7.064 -0.01 7.389 0.09 C 7.626 0.162 7.851 0.275 8.047 0.379 C 8.242 0.275 8.468 0.162 8.705 0.09 Z M 10.061 2.252 C 9.479 2.295 8.743 2.322 7.938 2.322 C 7.132 2.322 6.394 2.295 5.81 2.252 C 6.401 2.654 7.14 3.019 7.937 3.019 C 8.734 3.019 9.471 2.654 10.061 2.252 Z M 9.507 0.846 C 9.346 0.781 9.162 0.786 8.939 0.854 C 8.711 0.924 8.481 1.048 8.24 1.18 C 8.12 1.246 7.974 1.246 7.854 1.18 C 7.613 1.048 7.383 0.924 7.154 0.854 C 6.987 0.803 6.842 0.788 6.713 0.81 L 6.588 0.846 C 6.432 0.908 6.209 1.086 5.978 1.316 C 5.931 1.363 5.881 1.407 5.832 1.45 C 6.393 1.493 7.124 1.521 7.938 1.521 C 8.805 1.521 9.577 1.488 10.15 1.44 C 10.123 1.413 10.095 1.386 10.068 1.357 L 9.965 1.24 C 9.794 1.036 9.631 0.896 9.507 0.846 Z" fill="currentColor" fill-rule="evenodd"></path>
</svg>