<svg xmlns="http://www.w3.org/2000/svg" width="18.500" height="20" viewBox="0 0 18.500 20" fill="none">
  <path d="M 0.66 20 C 0.52 20 0.34 19.9 0.24 19.8 C 0.1 19.72 0.04 19.54 0 19.4 L 0 4.62 C 0.04 4.48 0.1 4.3 0.24 4.2 C 0.34 4.12 0.52 4.02 0.66 4.02 L 4.78 4.02 C 4.86 2.94 5.38 1.9 6.22 1.16 C 7.02 0.42 8.12 0 9.24 0 C 10.38 0 11.46 0.42 12.28 1.16 C 13.12 1.9 13.6 2.94 13.7 4.02 L 17.82 4.02 C 17.98 4.02 18.12 4.12 18.26 4.22 C 18.32 4.28 18.38 4.34 18.4 4.4 C 18.46 4.48 18.46 4.58 18.5 4.62 L 18.5 19.4 C 18.46 19.54 18.38 19.68 18.26 19.8 C 18.22 19.84 18.16 19.9 18.06 19.94 C 17.98 19.96 17.92 20 17.84 20 L 0.66 20 Z M 9.74 15.54 C 10.24 15.46 10.68 15.2 11.06 14.86 C 11.4 14.5 11.66 14.04 11.74 13.54 C 11.78 13.38 11.8 13.2 11.8 13.02 C 11.8 12.68 11.74 12.38 11.6 12.06 C 11.4 11.58 11.08 11.18 10.66 10.9 C 10.26 10.6 9.74 10.46 9.26 10.46 C 8.58 10.46 7.9 10.72 7.46 11.2 C 6.98 11.7 6.7 12.34 6.7 13.02 C 6.7 13.54 6.86 14.04 7.14 14.46 C 7.4 14.9 7.8 15.2 8.28 15.4 C 8.6 15.54 8.92 15.6 9.22 15.6 C 9.4 15.6 9.56 15.58 9.74 15.54 Z M 9.96 16.66 C 9.74 16.72 9.5 16.72 9.28 16.72 C 8.8 16.72 8.3 16.62 7.86 16.44 C 7.2 16.18 6.64 15.7 6.2 15.08 C 5.8 14.5 5.6 13.78 5.6 13.02 L 5.6 7.48 L 6.68 7.48 L 6.68 10.4 C 7.38 9.72 8.28 9.36 9.26 9.36 C 9.96 9.36 10.68 9.54 11.28 9.98 C 11.88 10.38 12.34 10.96 12.64 11.64 C 12.82 12.06 12.92 12.52 12.92 13 C 12.92 13.24 12.88 13.48 12.82 13.76 C 12.68 14.46 12.34 15.12 11.84 15.64 C 11.32 16.18 10.68 16.52 9.96 16.66 Z M 1.18 18.88 L 17.3 18.88 L 17.3 5.14 L 1.18 5.14 L 1.18 18.88 Z M 6.18 4.02 L 12.28 4.02 C 12.26 3.26 11.94 2.54 11.38 2 C 10.8 1.48 10.04 1.16 9.24 1.2 C 8.44 1.16 7.7 1.48 7.12 2 C 6.56 2.54 6.22 3.26 6.18 4.02 Z" fill="currentColor" fill-rule="nonzero"></path>
</svg>