<svg xmlns="http://www.w3.org/2000/svg" width="252" height="40" viewBox="0 0 252 40" fill="none">
  <path d="M 140.449 7.367 C 147.308 7.367 152.889 12.89 152.889 19.679 L 152.889 27.645 C 152.889 34.457 147.309 40 140.449 40 C 135.366 40 130.846 36.961 128.934 32.259 L 128.789 31.905 L 130.836 31.905 L 130.906 32.054 C 132.641 35.739 136.386 38.12 140.449 38.12 C 146.265 38.12 150.996 33.441 150.996 27.688 L 150.996 26.239 C 148.744 29.837 144.804 32.034 140.491 32.034 C 133.631 32.034 128.05 26.512 128.05 19.725 C 128.05 12.911 133.612 7.367 140.449 7.367 Z M 27.791 32.329 L 25.875 32.329 L 25.875 0.688 L 27.791 0.688 L 27.791 32.329 Z M 1.899 13.16 C 4.15 9.563 8.087 7.367 12.397 7.367 C 19.258 7.367 24.839 12.89 24.839 19.679 C 24.839 26.491 19.279 32.034 12.443 32.034 C 5.583 32.034 0 26.513 0 19.726 L 0 0 L 1.899 0 L 1.899 13.16 Z M 54.957 7.368 C 61.73 7.368 67.256 12.751 67.396 19.421 L 67.398 19.421 L 67.445 19.679 C 67.445 26.491 61.842 32.034 54.957 32.034 C 52.578 32.034 50.254 31.345 48.225 30.041 C 46.201 31.346 43.878 32.034 41.495 32.034 C 34.636 32.034 29.054 26.513 29.054 19.726 C 29.054 12.912 34.635 7.368 41.495 7.368 C 43.861 7.368 46.199 8.058 48.266 9.364 C 50.293 8.058 52.603 7.368 54.957 7.368 Z M 178.884 0 L 178.884 19.679 C 178.884 26.491 173.322 32.034 166.485 32.034 C 159.626 32.034 154.045 26.513 154.045 19.726 C 154.045 12.911 159.626 7.367 166.485 7.367 C 170.797 7.367 174.736 9.564 176.988 13.161 L 176.988 0 L 178.884 0 Z M 192.438 7.367 C 199.297 7.367 204.878 12.89 204.878 19.679 L 204.878 31.436 L 202.983 31.436 L 202.983 26.239 C 200.73 29.837 196.789 32.034 192.477 32.034 C 185.619 32.034 180.039 26.512 180.039 19.725 C 180.039 12.911 185.601 7.367 192.438 7.367 Z M 222.047 7.368 C 228.909 7.368 234.493 12.89 234.493 19.679 L 234.493 20.642 L 211.612 20.642 C 212.081 26.001 216.635 30.16 222.097 30.16 C 226.161 30.16 229.907 27.775 231.64 24.084 L 231.709 23.935 L 233.765 23.935 L 233.62 24.289 C 231.702 28.994 227.179 32.034 222.097 32.034 C 215.237 32.034 209.657 26.513 209.657 19.726 C 209.657 12.911 215.215 7.368 222.047 7.368 Z M 244.873 7.368 C 248.281 7.368 251.053 10.13 251.053 13.524 L 251.053 13.783 L 249.163 13.783 L 249.163 13.524 C 249.163 11.167 247.239 9.249 244.873 9.249 C 242.488 9.249 240.548 11.178 240.548 13.55 C 240.548 16.311 242.736 17.171 245.38 17.938 C 249.773 19.141 252 21.492 252 24.923 C 252 28.844 248.803 32.034 244.873 32.034 C 240.925 32.034 237.713 28.845 237.713 24.923 L 237.713 24.664 L 239.608 24.664 L 239.608 24.923 C 239.609 27.811 241.952 30.16 244.832 30.16 C 247.719 30.16 250.103 27.827 250.146 24.959 C 250.145 22.293 248.351 20.513 244.813 19.674 C 240.715 18.658 238.658 16.581 238.697 13.5 C 238.697 10.12 241.468 7.368 244.873 7.368 Z M 93.259 7.368 C 98.155 7.368 102.138 11.308 102.138 16.15 L 102.138 31.436 L 100.244 31.436 L 100.244 16.15 C 100.244 12.345 97.111 9.249 93.259 9.249 C 89.431 9.249 86.315 12.345 86.315 16.15 L 86.315 31.436 L 84.424 31.436 L 84.424 16.15 C 84.424 12.345 81.289 9.249 77.437 9.249 C 73.606 9.249 70.49 12.345 70.49 16.15 L 70.49 31.436 L 68.598 31.436 L 68.598 16.191 C 68.598 11.326 72.563 7.368 77.437 7.368 C 80.804 7.368 83.858 9.252 85.368 12.215 C 86.877 9.252 89.916 7.368 93.259 7.368 Z M 105.822 31.436 L 103.927 31.436 L 103.927 7.969 L 105.822 7.969 L 105.822 31.436 Z M 117.245 7.368 C 122.568 7.368 126.899 11.669 126.899 16.955 L 126.899 31.436 L 125.007 31.436 L 125.007 16.996 C 125.007 12.725 121.525 9.249 117.245 9.249 C 112.947 9.249 109.45 12.706 109.45 16.955 L 109.45 31.436 L 107.551 31.436 L 107.551 16.955 C 107.551 11.669 111.9 7.368 117.245 7.368 Z M 208.499 31.436 L 206.605 31.436 L 206.605 0 L 208.499 0 L 208.499 31.436 Z M 41.578 9.334 C 35.764 9.334 31.034 14.013 31.034 19.763 C 31.034 25.541 35.744 30.241 41.533 30.241 C 43.381 30.241 45.157 29.777 46.693 28.896 C 44.104 26.553 42.651 23.257 42.692 19.801 C 42.692 16.342 44.155 13.028 46.718 10.655 C 45.165 9.79 43.395 9.334 41.578 9.334 Z M 12.443 9.249 C 6.629 9.249 1.899 13.928 1.899 19.679 C 1.899 25.458 6.609 30.16 12.397 30.16 C 18.214 30.16 22.946 25.48 22.946 19.726 C 22.946 13.949 18.234 9.249 12.443 9.249 Z M 55.048 9.249 C 53.174 9.249 51.403 9.716 49.903 10.603 C 52.471 12.937 53.937 16.225 53.938 19.679 C 53.938 23.149 52.458 26.467 49.866 28.837 C 51.434 29.704 53.202 30.16 55.003 30.16 C 60.818 30.16 65.549 25.48 65.549 19.726 L 65.549 19.467 L 65.586 19.467 C 65.447 13.809 60.774 9.249 55.048 9.249 Z M 140.491 9.249 C 134.676 9.249 129.945 13.927 129.945 19.679 C 129.945 25.458 134.657 30.16 140.449 30.16 C 146.255 30.16 150.986 25.469 150.996 19.702 C 150.986 13.939 146.273 9.249 140.491 9.249 Z M 166.485 9.249 C 160.671 9.249 155.941 13.928 155.94 19.679 C 155.94 25.458 160.651 30.16 166.442 30.16 C 172.257 30.16 176.988 25.48 176.988 19.726 C 176.988 13.949 172.277 9.249 166.485 9.249 Z M 192.477 9.249 C 186.662 9.249 181.931 13.927 181.931 19.679 C 181.931 25.458 186.644 30.16 192.438 30.16 C 198.242 30.16 202.973 25.469 202.983 19.702 C 202.973 13.939 198.259 9.249 192.477 9.249 Z M 48.31 11.707 C 45.913 13.713 44.543 16.624 44.543 19.726 C 44.543 22.816 45.915 25.737 48.313 27.773 C 50.711 25.779 52.082 22.871 52.082 19.763 C 52.082 16.671 50.71 13.747 48.31 11.707 Z M 237.546 20.642 L 235.651 20.642 L 235.651 7.968 L 237.546 7.968 L 237.546 20.642 Z M 222.097 9.249 C 216.632 9.249 212.079 13.405 211.612 18.761 L 232.535 18.761 C 232.07 13.405 227.537 9.249 222.097 9.249 Z M 105.822 5.418 L 103.927 5.418 L 103.927 0.001 L 105.822 0.001 L 105.822 5.418 Z" fill="currentColor" fill-rule="nonzero"></path>
</svg>